<svg xmlns="http://www.w3.org/2000/svg" viewBox="30.0 -20.0 1380.0 1431.75" width="1380.0" height="1431.75">
<rect x="30.0" y="-20.0" width="1380.0" height="1431.75" fill="#ffffff"/>
<rect x="80.0" y="30.0" width="1280.0" height="100.0" rx="0" stroke="#175CD3" stroke-width="1" fill="#EFF8FF" opacity="1.0"/>
<text x="120.0" y="76.3" font-size="28.0" fill="#111827" text-anchor="start" dominant-baseline="central" opacity="1.0" >智慧园区巡检决策系统 · 原型总览</text>
<text x="120.0" y="107.65" font-size="14.0" fill="#667085" text-anchor="start" dominant-baseline="central" opacity="1.0" >6 screens · PC 后台 (3) + 移动端 (3) · High-fidelity Prototype</text>
<polyline points="490.0,370.0 510.0,370.0" stroke="#475467" stroke-width="2" fill="none" opacity="0.6"/>
<polyline points="910.0,370.0 930.0,370.0" stroke="#475467" stroke-width="2" fill="none" opacity="0.6"/>
<text x="80.0" y="183.5" font-size="20.0" fill="#111827" text-anchor="start" dominant-baseline="central" opacity="1.0" >PC 后台 — 管理层</text>
<text x="80.0" y="204.675" font-size="13.0" fill="#667085" text-anchor="start" dominant-baseline="central" opacity="1.0" >巡检调度、数据监控与决策分析 —— 3 screens</text>
<rect x="80.0" y="215.0" width="390.0" height="440.0" rx="0" stroke="#D0D5DD" stroke-width="2" fill="#FFFFFF" opacity="1.0"/>
<rect x="80.0" y="215.0" width="390.0" height="34.0" rx="0" stroke="#175CD3" stroke-width="1" fill="#EFF8FF" opacity="1.0"/>
<text x="92.0" y="239.65" font-size="14.0" fill="#175CD3" text-anchor="start" dominant-baseline="central" opacity="1.0" >数据大盘</text>
<rect x="90.0" y="257.0" width="85.0" height="50.0" rx="0" stroke="#E0E0E0" stroke-width="1" fill="#F8FAFC" opacity="1.0"/>
<rect x="185.0" y="257.0" width="85.0" height="50.0" rx="0" stroke="#E0E0E0" stroke-width="1" fill="#F8FAFC" opacity="1.0"/>
<rect x="280.0" y="257.0" width="85.0" height="50.0" rx="0" stroke="#E0E0E0" stroke-width="1" fill="#F8FAFC" opacity="1.0"/>
<rect x="375.0" y="257.0" width="85.0" height="50.0" rx="0" stroke="#E0E0E0" stroke-width="1" fill="#F8FAFC" opacity="1.0"/>
<text x="98.0" y="284.55" font-size="18.0" fill="#111827" text-anchor="start" dominant-baseline="central" opacity="1.0" >287</text>
<text x="98.0" y="299.775" font-size="9.0" fill="#667085" text-anchor="start" dominant-baseline="central" opacity="1.0" >今日工单</text>
<text x="193.0" y="284.55" font-size="18.0" fill="#111827" text-anchor="start" dominant-baseline="central" opacity="1.0" >196</text>
<text x="193.0" y="299.775" font-size="9.0" fill="#667085" text-anchor="start" dominant-baseline="central" opacity="1.0" >已完成</text>
<text x="288.0" y="284.55" font-size="18.0" fill="#111827" text-anchor="start" dominant-baseline="central" opacity="1.0" >42</text>
<text x="288.0" y="299.775" font-size="9.0" fill="#667085" text-anchor="start" dominant-baseline="central" opacity="1.0" >待处理</text>
<text x="383.0" y="282.6" font-size="16.0" fill="#111827" text-anchor="start" dominant-baseline="central" opacity="1.0" >12.4min</text>
<text x="383.0" y="299.775" font-size="9.0" fill="#667085" text-anchor="start" dominant-baseline="central" opacity="1.0" >平均响应</text>
<rect x="90.0" y="317.0" width="185.0" height="160.0" rx="0" stroke="#D0D5DD" stroke-width="1" fill="#F0F9FF" opacity="1.0"/>
<text x="96.0" y="337.725" font-size="11.0" fill="#026AA2" text-anchor="start" dominant-baseline="central" opacity="1.0" >实时巡检热力图</text>
<text x="94.0" y="464.8" font-size="8.0" fill="#667085" text-anchor="start" dominant-baseline="central" opacity="1.0" >图例: ● 巡检员  ● 紧急事件</text>
<rect x="283.0" y="317.0" width="177.0" height="76.0" rx="0" stroke="#D0D5DD" stroke-width="1" fill="#F8FAFC" opacity="1.0"/>
<text x="289.0" y="334.75" font-size="10.0" fill="#111827" text-anchor="start" dominant-baseline="central" opacity="1.0" >巡检完成趋势</text>
<rect x="299.0" y="359.0" width="16.0" height="18.0" rx="0" stroke="#175CD3" stroke-width="1" fill="#175CD3" opacity="1.0"/>
<rect x="323.0" y="355.0" width="16.0" height="22.0" rx="0" stroke="#175CD3" stroke-width="1" fill="#175CD3" opacity="1.0"/>
<rect x="347.0" y="351.0" width="16.0" height="26.0" rx="0" stroke="#175CD3" stroke-width="1" fill="#175CD3" opacity="1.0"/>
<rect x="371.0" y="347.0" width="16.0" height="30.0" rx="0" stroke="#175CD3" stroke-width="1" fill="#175CD3" opacity="1.0"/>
<rect x="395.0" y="343.0" width="16.0" height="34.0" rx="0" stroke="#175CD3" stroke-width="1" fill="#175CD3" opacity="1.0"/>
<rect x="419.0" y="339.0" width="16.0" height="38.0" rx="0" stroke="#175CD3" stroke-width="1" fill="#175CD3" opacity="1.0"/>
<rect x="443.0" y="357.0" width="16.0" height="20.0" rx="0" stroke="#175CD3" stroke-width="1" fill="#175CD3" opacity="1.0"/>
<text x="289.0" y="391.825" font-size="7.0" fill="#667085" text-anchor="start" dominant-baseline="central" opacity="1.0" >一 二 三 四 五 六 日</text>
<rect x="283.0" y="401.0" width="177.0" height="76.0" rx="0" stroke="#D0D5DD" stroke-width="1" fill="#F8FAFC" opacity="1.0"/>
<text x="289.0" y="418.75" font-size="10.0" fill="#111827" text-anchor="start" dominant-baseline="central" opacity="1.0" >设备健康度</text>
<text x="289.0" y="436.8" font-size="8.0" fill="#027A48" text-anchor="start" dominant-baseline="central" opacity="1.0" >电梯 92%</text>
<text x="289.0" y="450.8" font-size="8.0" fill="#C4320A" text-anchor="start" dominant-baseline="central" opacity="1.0" >消防 74%</text>
<text x="289.0" y="464.8" font-size="8.0" fill="#027A48" text-anchor="start" dominant-baseline="central" opacity="1.0" >电力 95%</text>
<text x="90.0" y="497.775" font-size="9.0" fill="#475467" text-anchor="start" dominant-baseline="central" opacity="1.0" >张卫国(A) 李华明(B) 王海峰(C) 赵远(D)</text>
<rect x="510.0" y="215.0" width="390.0" height="440.0" rx="0" stroke="#D0D5DD" stroke-width="2" fill="#FFFFFF" opacity="1.0"/>
<rect x="510.0" y="215.0" width="390.0" height="34.0" rx="0" stroke="#175CD3" stroke-width="1" fill="#EFF8FF" opacity="1.0"/>
<text x="522.0" y="239.65" font-size="14.0" fill="#175CD3" text-anchor="start" dominant-baseline="central" opacity="1.0" >工单调度</text>
<rect x="520.0" y="259.0" width="85.0" height="24.0" rx="0" stroke="#175CD3" stroke-width="1" fill="#EFF8FF" opacity="1.0"/>
<text x="526.0" y="276.775" font-size="9.0" fill="#175CD3" text-anchor="start" dominant-baseline="central" opacity="1.0" >全部(42)</text>
<rect x="615.0" y="259.0" width="85.0" height="24.0" rx="0" stroke="#D0D5DD" stroke-width="1" fill="#F8FAFC" opacity="1.0"/>
<text x="621.0" y="276.775" font-size="9.0" fill="#475467" text-anchor="start" dominant-baseline="central" opacity="1.0" >待分配(8)</text>
<rect x="710.0" y="259.0" width="85.0" height="24.0" rx="0" stroke="#D0D5DD" stroke-width="1" fill="#F8FAFC" opacity="1.0"/>
<text x="716.0" y="276.775" font-size="9.0" fill="#475467" text-anchor="start" dominant-baseline="central" opacity="1.0" >进行中(18)</text>
<rect x="805.0" y="259.0" width="85.0" height="24.0" rx="0" stroke="#D0D5DD" stroke-width="1" fill="#F8FAFC" opacity="1.0"/>
<text x="811.0" y="276.775" font-size="9.0" fill="#475467" text-anchor="start" dominant-baseline="central" opacity="1.0" >待验收(11)</text>
<rect x="520.0" y="291.0" width="180.0" height="270.0" rx="0" stroke="#D0D5DD" stroke-width="1" fill="#F8FAFC" opacity="1.0"/>
<rect x="520.0" y="291.0" width="4.0" height="48.0" rx="0" stroke="#D92D20" stroke-width="1" fill="#D92D20" opacity="1.0"/>
<text x="530.0" y="307.775" font-size="9.0" fill="#111827" text-anchor="start" dominant-baseline="central" opacity="1.0" >WO-0341 消防设备破损</text>
<text x="530.0" y="324.8" font-size="8.0" fill="#667085" text-anchor="start" dominant-baseline="central" opacity="1.0" >A区 · 14:32</text>
<rect x="520.0" y="341.0" width="4.0" height="48.0" rx="0" stroke="#C4320A" stroke-width="1" fill="#C4320A" opacity="1.0"/>
<text x="530.0" y="357.775" font-size="9.0" fill="#111827" text-anchor="start" dominant-baseline="central" opacity="1.0" >WO-0340 管道渗漏检测</text>
<text x="530.0" y="374.8" font-size="8.0" fill="#667085" text-anchor="start" dominant-baseline="central" opacity="1.0" >A区 · 14:32</text>
<rect x="520.0" y="391.0" width="4.0" height="48.0" rx="0" stroke="#027A48" stroke-width="1" fill="#027A48" opacity="1.0"/>
<text x="530.0" y="407.775" font-size="9.0" fill="#111827" text-anchor="start" dominant-baseline="central" opacity="1.0" >WO-0339 电梯异响排查</text>
<text x="530.0" y="424.8" font-size="8.0" fill="#667085" text-anchor="start" dominant-baseline="central" opacity="1.0" >A区 · 14:32</text>
<rect x="520.0" y="441.0" width="4.0" height="48.0" rx="0" stroke="#667085" stroke-width="1" fill="#667085" opacity="1.0"/>
<text x="530.0" y="457.775" font-size="9.0" fill="#111827" text-anchor="start" dominant-baseline="central" opacity="1.0" >WO-0338 照明系统检修</text>
<text x="530.0" y="474.8" font-size="8.0" fill="#667085" text-anchor="start" dominant-baseline="central" opacity="1.0" >A区 · 14:32</text>
<rect x="520.0" y="491.0" width="4.0" height="48.0" rx="0" stroke="#667085" stroke-width="1" fill="#667085" opacity="1.0"/>
<text x="530.0" y="507.775" font-size="9.0" fill="#111827" text-anchor="start" dominant-baseline="central" opacity="1.0" >WO-0337 空调故障报修</text>
<text x="530.0" y="524.8" font-size="8.0" fill="#667085" text-anchor="start" dominant-baseline="central" opacity="1.0" >A区 · 14:32</text>
<rect x="708.0" y="291.0" width="182.0" height="270.0" rx="0" stroke="#D0D5DD" stroke-width="1" fill="#FFFFFF" opacity="1.0"/>
<text x="716.0" y="310.75" font-size="10.0" fill="#111827" text-anchor="start" dominant-baseline="central" opacity="1.0" >WO-2026-0341</text>
<text x="716.0" y="333.675" font-size="13.0" fill="#111827" text-anchor="start" dominant-baseline="central" opacity="1.0" >消防设备破损</text>
<text x="716.0" y="355.775" font-size="9.0" fill="#D92D20" text-anchor="start" dominant-baseline="central" opacity="1.0" >优先级: P0 紧急</text>
<text x="716.0" y="371.775" font-size="9.0" fill="#475467" text-anchor="start" dominant-baseline="central" opacity="1.0" >位置: A区 3F 消防通道</text>
<text x="716.0" y="387.775" font-size="9.0" fill="#667085" text-anchor="start" dominant-baseline="central" opacity="1.0" >状态: 待分配</text>
<text x="716.0" y="403.775" font-size="9.0" fill="#475467" text-anchor="start" dominant-baseline="central" opacity="1.0" >上报人: 张卫国</text>
<rect x="716.0" y="409.0" width="166.0" height="30.0" rx="0" stroke="#7A5AF8" stroke-width="1" fill="#F5F3FF" opacity="1.0"/>
<text x="722.0" y="427.775" font-size="9.0" fill="#7A5AF8" text-anchor="start" dominant-baseline="central" opacity="1.0" >AI 推荐: 派给张卫国 (距离最近)</text>
<text x="716.0" y="461.775" font-size="9.0" fill="#111827" text-anchor="start" dominant-baseline="central" opacity="1.0" >处理时间线</text>
<text x="732.0" y="473.8" font-size="8.0" fill="#475467" text-anchor="start" dominant-baseline="central" opacity="1.0" >问题上报 14:32</text>
<text x="732.0" y="496.8" font-size="8.0" fill="#667085" text-anchor="start" dominant-baseline="central" opacity="1.0" >待分配 (当前)</text>
<rect x="728.0" y="516.0" width="140.0" height="28.0" rx="0" stroke="#C4320A" stroke-width="1" fill="#FFF7ED" opacity="1.0"/>
<text x="734.0" y="534.775" font-size="9.0" fill="#C4320A" text-anchor="start" dominant-baseline="central" opacity="1.0" >派单弹窗 → 指派人员</text>
<rect x="940.0" y="215.0" width="390.0" height="440.0" rx="0" stroke="#D0D5DD" stroke-width="2" fill="#FFFFFF" opacity="1.0"/>
<rect x="940.0" y="215.0" width="390.0" height="34.0" rx="0" stroke="#175CD3" stroke-width="1" fill="#EFF8FF" opacity="1.0"/>
<text x="952.0" y="239.65" font-size="14.0" fill="#175CD3" text-anchor="start" dominant-baseline="central" opacity="1.0" >决策中心</text>
<rect x="950.0" y="257.0" width="85.0" height="42.0" rx="0" stroke="#E0E0E0" stroke-width="1" fill="#F8FAFC" opacity="1.0"/>
<rect x="1045.0" y="257.0" width="85.0" height="42.0" rx="0" stroke="#E0E0E0" stroke-width="1" fill="#F8FAFC" opacity="1.0"/>
<rect x="1140.0" y="257.0" width="85.0" height="42.0" rx="0" stroke="#E0E0E0" stroke-width="1" fill="#F8FAFC" opacity="1.0"/>
<rect x="1235.0" y="257.0" width="85.0" height="42.0" rx="0" stroke="#E0E0E0" stroke-width="1" fill="#F8FAFC" opacity="1.0"/>
<text x="958.0" y="278.65" font-size="14.0" fill="#111827" text-anchor="start" dominant-baseline="central" opacity="1.0" >87.3%</text>
<text x="958.0" y="290.8" font-size="8.0" fill="#027A48" text-anchor="start" dominant-baseline="central" opacity="1.0" >完成率 ↑4.2%</text>
<text x="1053.0" y="278.65" font-size="14.0" fill="#111827" text-anchor="start" dominant-baseline="central" opacity="1.0" >23.7min</text>
<text x="1053.0" y="290.8" font-size="8.0" fill="#667085" text-anchor="start" dominant-baseline="central" opacity="1.0" >平均耗时 ↓3.1</text>
<rect x="950.0" y="309.0" width="370.0" height="85.0" rx="0" stroke="#D0D5DD" stroke-width="1" fill="#F8FAFC" opacity="1.0"/>
<text x="956.0" y="326.75" font-size="10.0" fill="#111827" text-anchor="start" dominant-baseline="central" opacity="1.0" >巡检路线偏差分析</text>
<rect x="1250.0" y="313.0" width="30.0" height="14.0" rx="0" stroke="#7A5AF8" stroke-width="1" fill="#F5F3FF" opacity="1.0"/>
<text x="1254.0" y="325.8" font-size="8.0" fill="#7A5AF8" text-anchor="start" dominant-baseline="central" opacity="1.0" >AI</text>
<text x="956.0" y="375.8" font-size="8.0" fill="#475467" text-anchor="start" dominant-baseline="central" opacity="1.0" >实际路径 ────  规划路径 ░░░░  偏离段 ⊘</text>
<rect x="950.0" y="402.0" width="370.0" height="80.0" rx="0" stroke="#D0D5DD" stroke-width="1" fill="#F0F9FF" opacity="1.0"/>
<text x="956.0" y="419.75" font-size="10.0" fill="#111827" text-anchor="start" dominant-baseline="central" opacity="1.0" >巡检覆盖率热力图</text>
<rect x="1220.0" y="406.0" width="30.0" height="14.0" rx="0" stroke="#026AA2" stroke-width="1" fill="#F0F9FF" opacity="1.0"/>
<text x="1223.0" y="418.8" font-size="8.0" fill="#026AA2" text-anchor="start" dominant-baseline="central" opacity="1.0" >GIS</text>
<rect x="956.0" y="424.0" width="36.0" height="9.0" rx="0" stroke="transparent" stroke-width="0" fill="#E0E7FF" opacity="1.0"/>
<rect x="994.0" y="424.0" width="36.0" height="9.0" rx="0" stroke="transparent" stroke-width="0" fill="#E0E7FF" opacity="1.0"/>
<rect x="1032.0" y="424.0" width="36.0" height="9.0" rx="0" stroke="transparent" stroke-width="0" fill="#E0E7FF" opacity="1.0"/>
<rect x="1070.0" y="424.0" width="36.0" height="9.0" rx="0" stroke="transparent" stroke-width="0" fill="#E0E7FF" opacity="1.0"/>
<rect x="1108.0" y="424.0" width="36.0" height="9.0" rx="0" stroke="transparent" stroke-width="0" fill="#E0E7FF" opacity="1.0"/>
<rect x="1146.0" y="424.0" width="36.0" height="9.0" rx="0" stroke="transparent" stroke-width="0" fill="#E0E7FF" opacity="1.0"/>
<rect x="1184.0" y="424.0" width="36.0" height="9.0" rx="0" stroke="transparent" stroke-width="0" fill="#E0E7FF" opacity="1.0"/>
<rect x="1222.0" y="424.0" width="36.0" height="9.0" rx="0" stroke="transparent" stroke-width="0" fill="#E0E7FF" opacity="1.0"/>
<rect x="1260.0" y="424.0" width="36.0" height="9.0" rx="0" stroke="transparent" stroke-width="0" fill="#E0E7FF" opacity="1.0"/>
<rect x="956.0" y="435.0" width="36.0" height="9.0" rx="0" stroke="transparent" stroke-width="0" fill="#A5B4FC" opacity="1.0"/>
<rect x="994.0" y="435.0" width="36.0" height="9.0" rx="0" stroke="transparent" stroke-width="0" fill="#A5B4FC" opacity="1.0"/>
<rect x="1032.0" y="435.0" width="36.0" height="9.0" rx="0" stroke="transparent" stroke-width="0" fill="#A5B4FC" opacity="1.0"/>
<rect x="1070.0" y="435.0" width="36.0" height="9.0" rx="0" stroke="transparent" stroke-width="0" fill="#A5B4FC" opacity="1.0"/>
<rect x="1108.0" y="435.0" width="36.0" height="9.0" rx="0" stroke="transparent" stroke-width="0" fill="#A5B4FC" opacity="1.0"/>
<rect x="1146.0" y="435.0" width="36.0" height="9.0" rx="0" stroke="transparent" stroke-width="0" fill="#A5B4FC" opacity="1.0"/>
<rect x="1184.0" y="435.0" width="36.0" height="9.0" rx="0" stroke="transparent" stroke-width="0" fill="#A5B4FC" opacity="1.0"/>
<rect x="1222.0" y="435.0" width="36.0" height="9.0" rx="0" stroke="transparent" stroke-width="0" fill="#A5B4FC" opacity="1.0"/>
<rect x="1260.0" y="435.0" width="36.0" height="9.0" rx="0" stroke="transparent" stroke-width="0" fill="#A5B4FC" opacity="1.0"/>
<rect x="956.0" y="446.0" width="36.0" height="9.0" rx="0" stroke="transparent" stroke-width="0" fill="#818CF8" opacity="1.0"/>
<rect x="994.0" y="446.0" width="36.0" height="9.0" rx="0" stroke="transparent" stroke-width="0" fill="#818CF8" opacity="1.0"/>
<rect x="1032.0" y="446.0" width="36.0" height="9.0" rx="0" stroke="transparent" stroke-width="0" fill="#818CF8" opacity="1.0"/>
<rect x="1070.0" y="446.0" width="36.0" height="9.0" rx="0" stroke="transparent" stroke-width="0" fill="#818CF8" opacity="1.0"/>
<rect x="1108.0" y="446.0" width="36.0" height="9.0" rx="0" stroke="transparent" stroke-width="0" fill="#818CF8" opacity="1.0"/>
<rect x="1146.0" y="446.0" width="36.0" height="9.0" rx="0" stroke="transparent" stroke-width="0" fill="#818CF8" opacity="1.0"/>
<rect x="1184.0" y="446.0" width="36.0" height="9.0" rx="0" stroke="transparent" stroke-width="0" fill="#818CF8" opacity="1.0"/>
<rect x="1222.0" y="446.0" width="36.0" height="9.0" rx="0" stroke="transparent" stroke-width="0" fill="#818CF8" opacity="1.0"/>
<rect x="1260.0" y="446.0" width="36.0" height="9.0" rx="0" stroke="transparent" stroke-width="0" fill="#818CF8" opacity="1.0"/>
<rect x="956.0" y="457.0" width="36.0" height="9.0" rx="0" stroke="transparent" stroke-width="0" fill="#6366F1" opacity="1.0"/>
<rect x="994.0" y="457.0" width="36.0" height="9.0" rx="0" stroke="transparent" stroke-width="0" fill="#6366F1" opacity="1.0"/>
<rect x="1032.0" y="457.0" width="36.0" height="9.0" rx="0" stroke="transparent" stroke-width="0" fill="#6366F1" opacity="1.0"/>
<rect x="1070.0" y="457.0" width="36.0" height="9.0" rx="0" stroke="transparent" stroke-width="0" fill="#6366F1" opacity="1.0"/>
<rect x="1108.0" y="457.0" width="36.0" height="9.0" rx="0" stroke="transparent" stroke-width="0" fill="#6366F1" opacity="1.0"/>
<rect x="1146.0" y="457.0" width="36.0" height="9.0" rx="0" stroke="transparent" stroke-width="0" fill="#6366F1" opacity="1.0"/>
<rect x="1184.0" y="457.0" width="36.0" height="9.0" rx="0" stroke="transparent" stroke-width="0" fill="#6366F1" opacity="1.0"/>
<rect x="1222.0" y="457.0" width="36.0" height="9.0" rx="0" stroke="transparent" stroke-width="0" fill="#6366F1" opacity="1.0"/>
<rect x="1260.0" y="457.0" width="36.0" height="9.0" rx="0" stroke="transparent" stroke-width="0" fill="#6366F1" opacity="1.0"/>
<rect x="956.0" y="468.0" width="36.0" height="9.0" rx="0" stroke="transparent" stroke-width="0" fill="#4F46E5" opacity="1.0"/>
<rect x="994.0" y="468.0" width="36.0" height="9.0" rx="0" stroke="transparent" stroke-width="0" fill="#4F46E5" opacity="1.0"/>
<rect x="1032.0" y="468.0" width="36.0" height="9.0" rx="0" stroke="transparent" stroke-width="0" fill="#4F46E5" opacity="1.0"/>
<rect x="1070.0" y="468.0" width="36.0" height="9.0" rx="0" stroke="transparent" stroke-width="0" fill="#4F46E5" opacity="1.0"/>
<rect x="1108.0" y="468.0" width="36.0" height="9.0" rx="0" stroke="transparent" stroke-width="0" fill="#4F46E5" opacity="1.0"/>
<rect x="1146.0" y="468.0" width="36.0" height="9.0" rx="0" stroke="transparent" stroke-width="0" fill="#4F46E5" opacity="1.0"/>
<rect x="1184.0" y="468.0" width="36.0" height="9.0" rx="0" stroke="transparent" stroke-width="0" fill="#4F46E5" opacity="1.0"/>
<rect x="1222.0" y="468.0" width="36.0" height="9.0" rx="0" stroke="transparent" stroke-width="0" fill="#4F46E5" opacity="1.0"/>
<rect x="1260.0" y="468.0" width="36.0" height="9.0" rx="0" stroke="transparent" stroke-width="0" fill="#4F46E5" opacity="1.0"/>
<rect x="950.0" y="490.0" width="370.0" height="80.0" rx="0" stroke="#D0D5DD" stroke-width="1" fill="#F8FAFC" opacity="1.0"/>
<text x="956.0" y="507.75" font-size="10.0" fill="#111827" text-anchor="start" dominant-baseline="central" opacity="1.0" >巡检员效率对比</text>
<text x="956.0" y="524.775" font-size="9.0" fill="#027A48" text-anchor="start" dominant-baseline="central" opacity="1.0" >张卫国  28单  21.2min  96%  优秀</text>
<text x="956.0" y="538.775" font-size="9.0" fill="#475467" text-anchor="start" dominant-baseline="central" opacity="1.0" >李华明  24单  24.8min  88%  良好</text>
<text x="956.0" y="552.775" font-size="9.0" fill="#C4320A" text-anchor="start" dominant-baseline="central" opacity="1.0" >王海峰  19单  26.3min  79%  一般</text>
<text x="956.0" y="566.775" font-size="9.0" fill="#D92D20" text-anchor="start" dominant-baseline="central" opacity="1.0" >赵  远  15单  29.1min  71%  需改进</text>
<text x="80.0" y="713.5" font-size="20.0" fill="#111827" text-anchor="start" dominant-baseline="central" opacity="1.0" >移动端 — 巡检员</text>
<text x="80.0" y="734.675" font-size="13.0" fill="#667085" text-anchor="start" dominant-baseline="central" opacity="1.0" >现场巡检核心流程：任务接收 → 导航定位 → AI拍照 → 问题上报 —— 3 screens</text>
<polyline points="370.0,960.0 390.0,960.0" stroke="#475467" stroke-width="2" fill="none" opacity="0.6"/>
<polyline points="710.0,960.0 730.0,960.0" stroke="#475467" stroke-width="2" fill="none" opacity="0.6"/>
<rect x="80.0" y="740.0" width="270.0" height="560.0" rx="0" stroke="#D0D5DD" stroke-width="2" fill="#FFFFFF" opacity="1.0"/>
<rect x="80.0" y="740.0" width="270.0" height="22.0" rx="0" stroke="#1F2937" stroke-width="1" fill="#1F2937" opacity="1.0"/>
<text x="90.0" y="756.775" font-size="9.0" fill="#FFFFFF" text-anchor="start" dominant-baseline="central" opacity="1.0" >09:41</text>
<rect x="92.0" y="770.0" width="28.0" height="28.0" rx="0" stroke="#175CD3" stroke-width="1" fill="#EFF8FF" opacity="1.0"/>
<text x="98.0" y="790.725" font-size="11.0" fill="#175CD3" text-anchor="start" dominant-baseline="central" opacity="1.0" >张</text>
<text x="126.0" y="786.675" font-size="13.0" fill="#111827" text-anchor="start" dominant-baseline="central" opacity="1.0" >张卫国</text>
<text x="126.0" y="801.75" font-size="10.0" fill="#667085" text-anchor="start" dominant-baseline="central" opacity="1.0" >早上好</text>
<rect x="90.0" y="812.0" width="77.0" height="55.0" rx="0" stroke="#E0E0E0" stroke-width="1" fill="#F8FAFC" opacity="1.0"/>
<rect x="177.0" y="812.0" width="77.0" height="55.0" rx="0" stroke="#E0E0E0" stroke-width="1" fill="#F8FAFC" opacity="1.0"/>
<rect x="264.0" y="812.0" width="77.0" height="55.0" rx="0" stroke="#E0E0E0" stroke-width="1" fill="#F8FAFC" opacity="1.0"/>
<text x="102.0" y="845.4" font-size="24.0" fill="#175CD3" text-anchor="start" dominant-baseline="central" opacity="1.0" >4</text>
<text x="102.0" y="858.775" font-size="9.0" fill="#667085" text-anchor="start" dominant-baseline="central" opacity="1.0" >待巡检</text>
<text x="189.0" y="845.4" font-size="24.0" fill="#175CD3" text-anchor="start" dominant-baseline="central" opacity="1.0" >2</text>
<text x="189.0" y="858.775" font-size="9.0" fill="#667085" text-anchor="start" dominant-baseline="central" opacity="1.0" >进行中</text>
<text x="276.0" y="845.4" font-size="24.0" fill="#D92D20" text-anchor="start" dominant-baseline="central" opacity="1.0" >1</text>
<text x="276.0" y="858.775" font-size="9.0" fill="#D92D20" text-anchor="start" dominant-baseline="central" opacity="1.0" >紧急</text>
<text x="92.0" y="889.725" font-size="11.0" fill="#111827" text-anchor="start" dominant-baseline="central" opacity="1.0" >今日巡检计划</text>
<rect x="92.0" y="893.0" width="78.0" height="72.0" rx="0" stroke="#D0D5DD" stroke-width="1" fill="#FFFFFF" opacity="1.0"/>
<rect x="178.0" y="893.0" width="78.0" height="72.0" rx="0" stroke="#D0D5DD" stroke-width="1" fill="#FFFFFF" opacity="1.0"/>
<rect x="264.0" y="893.0" width="78.0" height="72.0" rx="0" stroke="#D0D5DD" stroke-width="1" fill="#FFFFFF" opacity="1.0"/>
<text x="100.0" y="911.775" font-size="9.0" fill="#D92D20" text-anchor="start" dominant-baseline="central" opacity="1.0" >A区</text>
<text x="100.0" y="924.8" font-size="8.0" fill="#111827" text-anchor="start" dominant-baseline="central" opacity="1.0" >消防设施</text>
<text x="100.0" y="937.825" font-size="7.0" fill="#667085" text-anchor="start" dominant-baseline="central" opacity="1.0" >3F</text>
<text x="186.0" y="911.775" font-size="9.0" fill="#C4320A" text-anchor="start" dominant-baseline="central" opacity="1.0" >B区</text>
<text x="186.0" y="924.8" font-size="8.0" fill="#111827" text-anchor="start" dominant-baseline="central" opacity="1.0" >管道设备</text>
<text x="186.0" y="937.825" font-size="7.0" fill="#667085" text-anchor="start" dominant-baseline="central" opacity="1.0" >1F</text>
<text x="272.0" y="911.775" font-size="9.0" fill="#027A48" text-anchor="start" dominant-baseline="central" opacity="1.0" >C区</text>
<text x="272.0" y="924.8" font-size="8.0" fill="#111827" text-anchor="start" dominant-baseline="central" opacity="1.0" >电梯检查</text>
<text x="272.0" y="937.825" font-size="7.0" fill="#667085" text-anchor="start" dominant-baseline="central" opacity="1.0" >B1</text>
<rect x="92.0" y="973.0" width="246.0" height="34.0" rx="0" stroke="#D92D20" stroke-width="1" fill="#FEF3F2" opacity="1.0"/>
<text x="98.0" y="989.775" font-size="9.0" fill="#D92D20" text-anchor="start" dominant-baseline="central" opacity="1.0" >紧急工单：A区3F消防设备破损</text>
<text x="260.0" y="1003.775" font-size="9.0" fill="#D92D20" text-anchor="start" dominant-baseline="central" opacity="1.0" >[接单]</text>
<text x="92.0" y="1029.725" font-size="11.0" fill="#111827" text-anchor="start" dominant-baseline="central" opacity="1.0" >我的工单</text>
<rect x="92.0" y="1033.0" width="4.0" height="44.0" rx="0" stroke="#D92D20" stroke-width="1" fill="#D92D20" opacity="1.0"/>
<text x="102.0" y="1049.775" font-size="9.0" fill="#111827" text-anchor="start" dominant-baseline="central" opacity="1.0" >WO-0341 消防设备</text>
<text x="102.0" y="1066.8" font-size="8.0" fill="#667085" text-anchor="start" dominant-baseline="central" opacity="1.0" >14:32 · A区3F</text>
<rect x="92.0" y="1085.0" width="4.0" height="44.0" rx="0" stroke="#C4320A" stroke-width="1" fill="#C4320A" opacity="1.0"/>
<text x="102.0" y="1101.775" font-size="9.0" fill="#111827" text-anchor="start" dominant-baseline="central" opacity="1.0" >WO-0340 管道渗漏</text>
<text x="102.0" y="1118.8" font-size="8.0" fill="#667085" text-anchor="start" dominant-baseline="central" opacity="1.0" >14:10 · B区1F</text>
<rect x="92.0" y="1137.0" width="4.0" height="44.0" rx="0" stroke="#027A48" stroke-width="1" fill="#027A48" opacity="1.0"/>
<text x="102.0" y="1153.775" font-size="9.0" fill="#111827" text-anchor="start" dominant-baseline="central" opacity="1.0" >WO-0339 电梯异响</text>
<text x="102.0" y="1170.8" font-size="8.0" fill="#667085" text-anchor="start" dominant-baseline="central" opacity="1.0" >13:45 · B1层</text>
<rect x="80.0" y="1264.0" width="270.0" height="36.0" rx="0" stroke="#D0D5DD" stroke-width="1" fill="#FFFFFF" opacity="1.0"/>
<text x="105.0" y="1287.75" font-size="10.0" fill="#175CD3" text-anchor="start" dominant-baseline="central" opacity="1.0" >● 任务</text>
<text x="190.0" y="1287.75" font-size="10.0" fill="#667085" text-anchor="start" dominant-baseline="central" opacity="1.0" >巡查</text>
<text x="275.0" y="1287.75" font-size="10.0" fill="#667085" text-anchor="start" dominant-baseline="central" opacity="1.0" >拍照</text>
<rect x="390.0" y="740.0" width="270.0" height="560.0" rx="0" stroke="#D0D5DD" stroke-width="2" fill="#FFFFFF" opacity="1.0"/>
<rect x="390.0" y="740.0" width="270.0" height="22.0" rx="0" stroke="#1F2937" stroke-width="1" fill="#1F2937" opacity="1.0"/>
<text x="400.0" y="756.775" font-size="9.0" fill="#FFFFFF" text-anchor="start" dominant-baseline="central" opacity="1.0" >09:41</text>
<text x="402.0" y="787.65" font-size="14.0" fill="#111827" text-anchor="start" dominant-baseline="central" opacity="1.0" >←</text>
<text x="422.0" y="784.725" font-size="11.0" fill="#111827" text-anchor="start" dominant-baseline="central" opacity="1.0" >A区3F消防设施检查</text>
<text x="422.0" y="800.775" font-size="9.0" fill="#667085" text-anchor="start" dominant-baseline="central" opacity="1.0" >距目标 12m · 23:47</text>
<rect x="402.0" y="808.0" width="246.0" height="200.0" rx="0" stroke="#D0D5DD" stroke-width="1" fill="#F0F9FF" opacity="1.0"/>
<text x="408.0" y="825.75" font-size="10.0" fill="#111827" text-anchor="start" dominant-baseline="central" opacity="1.0" >A区 3F 平面图</text>
<rect x="408.0" y="836.0" width="115.0" height="65.0" rx="0" stroke="#334155" stroke-width="1" fill="transparent" opacity="1.0"/>
<rect x="529.0" y="836.0" width="111.0" height="65.0" rx="0" stroke="#334155" stroke-width="1" fill="transparent" opacity="1.0"/>
<rect x="408.0" y="906.0" width="115.0" height="65.0" rx="0" stroke="#334155" stroke-width="1" fill="transparent" opacity="1.0"/>
<rect x="529.0" y="906.0" width="111.0" height="65.0" rx="0" stroke="#334155" stroke-width="1" fill="transparent" opacity="1.0"/>
<text x="414.0" y="859.8" font-size="8.0" fill="#475467" text-anchor="start" dominant-baseline="central" opacity="1.0" >消防控制室</text>
<text x="535.0" y="859.8" font-size="8.0" fill="#475467" text-anchor="start" dominant-baseline="central" opacity="1.0" >设备间</text>
<text x="414.0" y="929.8" font-size="8.0" fill="#475467" text-anchor="start" dominant-baseline="central" opacity="1.0" >会议室</text>
<text x="535.0" y="929.8" font-size="8.0" fill="#475467" text-anchor="start" dominant-baseline="central" opacity="1.0" >茶水间</text>
<text x="412.0" y="912.825" font-size="7.0" fill="#475467" text-anchor="start" dominant-baseline="central" opacity="1.0" >消火栓</text>
<text x="527.0" y="932.825" font-size="7.0" fill="#475467" text-anchor="start" dominant-baseline="central" opacity="1.0" >喷淋阀</text>
<text x="462.0" y="1004.825" font-size="7.0" fill="#027A48" text-anchor="start" dominant-baseline="central" opacity="1.0" >3F电梯 ✓</text>
<rect x="402.0" y="1016.0" width="78.0" height="36.0" rx="0" stroke="#D0D5DD" stroke-width="1" fill="#FFFFFF" opacity="1.0"/>
<rect x="486.0" y="1016.0" width="78.0" height="36.0" rx="0" stroke="#D0D5DD" stroke-width="1" fill="#FFFFFF" opacity="1.0"/>
<rect x="570.0" y="1016.0" width="78.0" height="36.0" rx="0" stroke="#175CD3" stroke-width="1" fill="#EFF8FF" opacity="1.0"/>
<text x="420.0" y="1039.75" font-size="10.0" fill="#475467" text-anchor="start" dominant-baseline="central" opacity="1.0" >导航</text>
<text x="504.0" y="1039.75" font-size="10.0" fill="#475467" text-anchor="start" dominant-baseline="central" opacity="1.0" >打卡</text>
<text x="580.0" y="1039.75" font-size="10.0" fill="#175CD3" text-anchor="start" dominant-baseline="central" opacity="1.0" >清单 3/7</text>
<rect x="402.0" y="1060.0" width="246.0" height="44.0" rx="0" stroke="#D0D5DD" stroke-width="1" fill="#F8FAFC" opacity="1.0"/>
<text x="408.0" y="1077.75" font-size="10.0" fill="#111827" text-anchor="start" dominant-baseline="central" opacity="1.0" >检查清单 (3/7 已完成)</text>
<text x="408.0" y="1095.8" font-size="8.0" fill="#667085" text-anchor="start" dominant-baseline="central" opacity="1.0" >✓ 消火栓  ✓ 喷淋阀  ☐ 应急灯  ☐ 烟感器</text>
<rect x="390.0" y="1264.0" width="270.0" height="36.0" rx="0" stroke="#D0D5DD" stroke-width="1" fill="#FFFFFF" opacity="1.0"/>
<text x="415.0" y="1287.75" font-size="10.0" fill="#667085" text-anchor="start" dominant-baseline="central" opacity="1.0" >任务</text>
<text x="500.0" y="1287.75" font-size="10.0" fill="#175CD3" text-anchor="start" dominant-baseline="central" opacity="1.0" >● 巡查</text>
<text x="585.0" y="1287.75" font-size="10.0" fill="#667085" text-anchor="start" dominant-baseline="central" opacity="1.0" >拍照</text>
<rect x="700.0" y="740.0" width="270.0" height="560.0" rx="0" stroke="#D0D5DD" stroke-width="2" fill="#FFFFFF" opacity="1.0"/>
<rect x="700.0" y="740.0" width="270.0" height="22.0" rx="0" stroke="#1F2937" stroke-width="1" fill="#1F2937" opacity="1.0"/>
<text x="710.0" y="756.775" font-size="9.0" fill="#FFFFFF" text-anchor="start" dominant-baseline="central" opacity="1.0" >09:41</text>
<text x="712.0" y="787.65" font-size="14.0" fill="#111827" text-anchor="start" dominant-baseline="central" opacity="1.0" >←</text>
<text x="732.0" y="784.725" font-size="11.0" fill="#111827" text-anchor="start" dominant-baseline="central" opacity="1.0" >AI拍照上报</text>
<rect x="712.0" y="794.0" width="246.0" height="220.0" rx="0" stroke="#1F2937" stroke-width="1" fill="#1F2937" opacity="1.0"/>
<rect x="730.0" y="844.0" width="90.0" height="70.0" rx="0" stroke="#175CD3" stroke-width="2" fill="transparent" opacity="1.0"/>
<text x="732.0" y="850.825" font-size="7.0" fill="#175CD3" text-anchor="start" dominant-baseline="central" opacity="1.0" >94.2%</text>
<text x="736.0" y="914.825" font-size="7.0" fill="#175CD3" text-anchor="start" dominant-baseline="central" opacity="1.0" >消防喷淋头</text>
<rect x="845.0" y="894.0" width="85.0" height="55.0" rx="0" stroke="#D92D20" stroke-width="2" fill="transparent" opacity="1.0"/>
<text x="847.0" y="900.825" font-size="7.0" fill="#D92D20" text-anchor="start" dominant-baseline="central" opacity="1.0" >87.6%</text>
<text x="849.0" y="959.825" font-size="7.0" fill="#D92D20" text-anchor="start" dominant-baseline="central" opacity="1.0" >破损区域</text>
<rect x="760.0" y="959.0" width="80.0" height="40.0" rx="0" stroke="#C4320A" stroke-width="2" fill="transparent" opacity="1.0"/>
<text x="762.0" y="965.825" font-size="7.0" fill="#C4320A" text-anchor="start" dominant-baseline="central" opacity="1.0" >72.1%</text>
<text x="764.0" y="999.825" font-size="7.0" fill="#C4320A" text-anchor="start" dominant-baseline="central" opacity="1.0" >水渍痕迹</text>
<rect x="712.0" y="1022.0" width="246.0" height="72.0" rx="0" stroke="#D0D5DD" stroke-width="1" fill="#F8FAFC" opacity="1.0"/>
<text x="718.0" y="1039.75" font-size="10.0" fill="#111827" text-anchor="start" dominant-baseline="central" opacity="1.0" >AI 识别结果</text>
<rect x="920.0" y="1026.0" width="30.0" height="14.0" rx="0" stroke="#7A5AF8" stroke-width="1" fill="#F5F3FF" opacity="1.0"/>
<text x="924.0" y="1038.8" font-size="8.0" fill="#7A5AF8" text-anchor="start" dominant-baseline="central" opacity="1.0" >AI</text>
<text x="718.0" y="1058.775" font-size="9.0" fill="#175CD3" text-anchor="start" dominant-baseline="central" opacity="1.0" >❶ 消防喷淋头  94.2%</text>
<text x="718.0" y="1072.775" font-size="9.0" fill="#D92D20" text-anchor="start" dominant-baseline="central" opacity="1.0" >❷ 破损区域    87.6%</text>
<text x="718.0" y="1086.775" font-size="9.0" fill="#C4320A" text-anchor="start" dominant-baseline="central" opacity="1.0" >❸ 水渍痕迹    72.1%</text>
<text x="712.0" y="1116.725" font-size="11.0" fill="#111827" text-anchor="start" dominant-baseline="central" opacity="1.0" >上报表单</text>
<rect x="712.0" y="1122.0" width="246.0" height="30.0" rx="0" stroke="#D0D5DD" stroke-width="1" fill="#FFFFFF" opacity="1.0"/>
<text x="718.0" y="1141.75" font-size="10.0" fill="#475467" text-anchor="start" dominant-baseline="central" opacity="1.0" >问题类型: 消防设备破损 ▼</text>
<text x="734.0" y="1175.775" font-size="9.0" fill="#FFFFFF" text-anchor="start" dominant-baseline="central" opacity="1.0" >P0 紧急</text>
<text x="788.0" y="1175.775" font-size="9.0" fill="#C4320A" text-anchor="start" dominant-baseline="central" opacity="1.0" >P1 重要</text>
<text x="842.0" y="1175.775" font-size="9.0" fill="#027A48" text-anchor="start" dominant-baseline="central" opacity="1.0" >P2 一般</text>
<rect x="712.0" y="1190.0" width="246.0" height="34.0" rx="0" stroke="#175CD3" stroke-width="1" fill="#175CD3" opacity="1.0"/>
<text x="795.0" y="1215.7" font-size="12.0" fill="#FFFFFF" text-anchor="start" dominant-baseline="central" opacity="1.0" >提交工单</text>
<rect x="700.0" y="1264.0" width="270.0" height="36.0" rx="0" stroke="#D0D5DD" stroke-width="1" fill="#FFFFFF" opacity="1.0"/>
<text x="725.0" y="1287.75" font-size="10.0" fill="#667085" text-anchor="start" dominant-baseline="central" opacity="1.0" >任务</text>
<text x="810.0" y="1287.75" font-size="10.0" fill="#667085" text-anchor="start" dominant-baseline="central" opacity="1.0" >巡查</text>
<text x="895.0" y="1287.75" font-size="10.0" fill="#175CD3" text-anchor="start" dominant-baseline="central" opacity="1.0" >● 拍照</text>
<text x="320.0" y="1354.725" font-size="11.0" fill="#667085" text-anchor="start" dominant-baseline="central" opacity="1.0" >智慧园区巡检决策系统 · 产品原型 · 6 screens · 2026</text>
</svg>